<svg width="62" height="62" viewBox="0 0 62 62" fill="none" xmlns="http://www.w3.org/2000/svg">
<g opacity="0.4">
<rect width="62" height="62" rx="31" fill="#1B232A"/>
<path d="M42.275 28.272C42.4704 28.3848 42.568 28.4412 42.6339 28.484C44.4554 29.6668 44.4554 32.3332 42.6339 33.516C42.568 33.5588 42.4704 33.6152 42.275 33.728L27.725 42.1284C27.5296 42.2412 27.432 42.2976 27.362 42.3333C25.4269 43.3193 23.1178 41.9861 23.0041 39.8173C23 39.7388 23 39.626 23 39.4004L23 22.5995C23 22.374 23 22.2612 23.0041 22.1827C23.1178 20.0139 25.4269 18.6807 27.362 19.6667C27.432 19.7024 27.5296 19.7588 27.725 19.8716L42.275 28.272Z" fill="#5ED5A8"/>
</g>
</svg>
