<svg xmlns="http://www.w3.org/2000/svg" viewBox="0 0 512 512" style="enable-background:new 0 0 512 512" xml:space="preserve">
  <path style="fill:#5ed5a8" d="M482.64 112.714c-17.746-21.094-50.509-29.699-113.078-29.699H142.434c-64.002 0-97.32 9.16-114.998 31.618-17.237 21.897-17.237 54.16-17.237 98.813v85.109c0 86.508 20.45 130.429 132.235 130.429h227.129c54.26 0 84.327-7.593 103.779-26.209 19.948-19.089 28.459-50.259 28.459-104.221v-85.109c0-47.089-1.334-79.543-19.161-100.731zM325.809 267.751l-103.138 53.904a15.857 15.857 0 0 1-23.203-14.055V200.138a15.858 15.858 0 0 1 23.168-14.073l103.138 53.556a15.859 15.859 0 0 1 .035 28.13z"/>
  <path style="fill:#1b232a" d="M369.563 439.184H142.434c-57.282 0-94.049-11.52-115.709-36.254C3.237 376.11 0 336.915 0 298.555v-85.109c0-46.704 0-80.448 19.421-105.121 19.854-25.222 55.493-35.509 123.013-35.509h227.128c65.944 0 100.967 9.658 120.882 33.333v-.001C510.5 129.984 512 164.107 512 213.446v85.109c0 57.016-9.453 90.388-31.606 111.589-21.552 20.627-53.661 29.04-110.831 29.04zM142.434 93.215c-60.486 0-91.482 8.033-106.985 27.728-15.051 19.12-15.051 49.902-15.051 92.504v85.109c0 83.14 17.619 120.23 122.036 120.23h227.129c51.353 0 79.376-6.773 96.726-23.378 17.743-16.979 25.312-45.944 25.312-96.853v-85.109c0-44.845-1.167-75.626-16.766-94.165v-.001c-15.574-18.514-46.074-26.066-105.273-26.066H142.434v.001zm72.892 240.442c-4.76 0-9.427-1.302-13.498-3.767-7.749-4.696-12.559-13.236-12.559-22.29V200.138c0-9.042 4.801-17.574 12.528-22.269 7.732-4.696 17.517-5.022 25.541-.854l103.136 53.555a25.973 25.973 0 0 1 14.049 23.09c.01 9.755-5.35 18.618-13.991 23.131l-103.136 53.903a26.169 26.169 0 0 1-12.07 2.963zm.003-139.171a5.67 5.67 0 0 0-2.942.818 5.69 5.69 0 0 0-2.72 4.834v107.461a5.695 5.695 0 0 0 2.728 4.843c1.655 1.003 3.833 1.072 5.55.173l103.138-53.904h.001a5.645 5.645 0 0 0 3.038-5.026 5.64 5.64 0 0 0-3.052-5.012l-103.138-53.556a5.643 5.643 0 0 0-2.603-.631z"/>
  <path style="fill:#1b232a" d="M341.673 407.968h-9.179c-5.633 0-10.199-4.566-10.199-10.199s4.566-10.199 10.199-10.199h9.179c5.633 0 10.199 4.566 10.199 10.199.001 5.633-4.566 10.199-10.199 10.199zm-48.956 0H131.57c-5.633 0-10.199-4.566-10.199-10.199s4.566-10.199 10.199-10.199h161.147c5.633 0 10.199 4.566 10.199 10.199s-4.566 10.199-10.199 10.199z"/>
</svg>
