<svg width="414" height="896" viewBox="0 0 414 896" fill="none" xmlns="http://www.w3.org/2000/svg">
<path d="M0 0H414V896H0V0Z" fill="#1B232A"/>
<path d="M99.1091 423.728L90.3611 440.648V449H84.2051V440.648L75.4571 423.728H82.4411L87.3371 434.312L92.1971 423.728H99.1091ZM110.733 449.288C108.765 449.288 106.989 448.868 105.405 448.028C103.845 447.188 102.609 445.988 101.697 444.428C100.809 442.868 100.365 441.044 100.365 438.956C100.365 436.892 100.821 435.08 101.733 433.52C102.645 431.936 103.893 430.724 105.477 429.884C107.061 429.044 108.837 428.624 110.805 428.624C112.773 428.624 114.549 429.044 116.133 429.884C117.717 430.724 118.965 431.936 119.877 433.52C120.789 435.08 121.245 436.892 121.245 438.956C121.245 441.02 120.777 442.844 119.841 444.428C118.929 445.988 117.669 447.188 116.061 448.028C114.477 448.868 112.701 449.288 110.733 449.288ZM110.733 443.96C111.909 443.96 112.905 443.528 113.721 442.664C114.561 441.8 114.981 440.564 114.981 438.956C114.981 437.348 114.573 436.112 113.757 435.248C112.965 434.384 111.981 433.952 110.805 433.952C109.605 433.952 108.609 434.384 107.817 435.248C107.025 436.088 106.629 437.324 106.629 438.956C106.629 440.564 107.013 441.8 107.781 442.664C108.573 443.528 109.557 443.96 110.733 443.96ZM144.347 428.912V449H138.191V446.264C137.567 447.152 136.715 447.872 135.635 448.424C134.579 448.952 133.403 449.216 132.107 449.216C130.571 449.216 129.215 448.88 128.039 448.208C126.863 447.512 125.951 446.516 125.303 445.22C124.655 443.924 124.331 442.4 124.331 440.648V428.912H130.451V439.82C130.451 441.164 130.799 442.208 131.495 442.952C132.191 443.696 133.127 444.068 134.303 444.068C135.503 444.068 136.451 443.696 137.147 442.952C137.843 442.208 138.191 441.164 138.191 439.82V428.912H144.347ZM159.965 443.78V449H156.833C154.601 449 152.861 448.46 151.613 447.38C150.365 446.276 149.741 444.488 149.741 442.016V434.024H147.293V428.912H149.741V424.016H155.897V428.912H159.929V434.024H155.897V442.088C155.897 442.688 156.041 443.12 156.329 443.384C156.617 443.648 157.097 443.78 157.769 443.78H159.965ZM183.23 428.912V449H177.074V446.264C176.45 447.152 175.598 447.872 174.518 448.424C173.462 448.952 172.286 449.216 170.99 449.216C169.454 449.216 168.098 448.88 166.922 448.208C165.746 447.512 164.834 446.516 164.186 445.22C163.538 443.924 163.214 442.4 163.214 440.648V428.912H169.334V439.82C169.334 441.164 169.682 442.208 170.378 442.952C171.074 443.696 172.01 444.068 173.186 444.068C174.386 444.068 175.334 443.696 176.03 442.952C176.726 442.208 177.074 441.164 177.074 439.82V428.912H183.23ZM193.808 431.756C194.384 430.82 195.212 430.064 196.292 429.488C197.372 428.912 198.608 428.624 200 428.624C201.656 428.624 203.156 429.044 204.5 429.884C205.844 430.724 206.9 431.924 207.668 433.484C208.46 435.044 208.856 436.856 208.856 438.92C208.856 440.984 208.46 442.808 207.668 444.392C206.9 445.952 205.844 447.164 204.5 448.028C203.156 448.868 201.656 449.288 200 449.288C198.584 449.288 197.348 449.012 196.292 448.46C195.236 447.884 194.408 447.128 193.808 446.192V449H187.652V422.36H193.808V431.756ZM202.592 438.92C202.592 437.384 202.16 436.184 201.296 435.32C200.456 434.432 199.412 433.988 198.164 433.988C196.94 433.988 195.896 434.432 195.032 435.32C194.192 436.208 193.772 437.42 193.772 438.956C193.772 440.492 194.192 441.704 195.032 442.592C195.896 443.48 196.94 443.924 198.164 443.924C199.388 443.924 200.432 443.48 201.296 442.592C202.16 441.68 202.592 440.456 202.592 438.92ZM231.022 438.632C231.022 439.208 230.986 439.808 230.914 440.432H216.982C217.078 441.68 217.474 442.64 218.17 443.312C218.89 443.96 219.766 444.284 220.798 444.284C222.334 444.284 223.402 443.636 224.002 442.34H230.554C230.218 443.66 229.606 444.848 228.718 445.904C227.854 446.96 226.762 447.788 225.442 448.388C224.122 448.988 222.646 449.288 221.014 449.288C219.046 449.288 217.294 448.868 215.758 448.028C214.222 447.188 213.022 445.988 212.158 444.428C211.294 442.868 210.862 441.044 210.862 438.956C210.862 436.868 211.282 435.044 212.122 433.484C212.986 431.924 214.186 430.724 215.722 429.884C217.258 429.044 219.022 428.624 221.014 428.624C222.958 428.624 224.686 429.032 226.198 429.848C227.71 430.664 228.886 431.828 229.726 433.34C230.59 434.852 231.022 436.616 231.022 438.632ZM224.722 437.012C224.722 435.956 224.362 435.116 223.642 434.492C222.922 433.868 222.022 433.556 220.942 433.556C219.91 433.556 219.034 433.856 218.314 434.456C217.618 435.056 217.186 435.908 217.018 437.012H224.722ZM248.054 444.248H256.118V449H241.898V423.728H248.054V444.248ZM262.15 426.824C261.07 426.824 260.182 426.512 259.486 425.888C258.814 425.24 258.478 424.448 258.478 423.512C258.478 422.552 258.814 421.76 259.486 421.136C260.182 420.488 261.07 420.164 262.15 420.164C263.206 420.164 264.07 420.488 264.742 421.136C265.438 421.76 265.786 422.552 265.786 423.512C265.786 424.448 265.438 425.24 264.742 425.888C264.07 426.512 263.206 426.824 262.15 426.824ZM265.21 428.912V449H259.054V428.912H265.21ZM277.843 449.288C276.091 449.288 274.531 448.988 273.163 448.388C271.795 447.788 270.715 446.972 269.923 445.94C269.131 444.884 268.687 443.708 268.591 442.412H274.675C274.747 443.108 275.071 443.672 275.647 444.104C276.223 444.536 276.931 444.752 277.771 444.752C278.539 444.752 279.127 444.608 279.535 444.32C279.967 444.008 280.183 443.612 280.183 443.132C280.183 442.556 279.883 442.136 279.283 441.872C278.683 441.584 277.711 441.272 276.367 440.936C274.927 440.6 273.727 440.252 272.767 439.892C271.807 439.508 270.979 438.92 270.283 438.128C269.587 437.312 269.239 436.22 269.239 434.852C269.239 433.7 269.551 432.656 270.175 431.72C270.823 430.76 271.759 430.004 272.983 429.452C274.231 428.9 275.707 428.624 277.411 428.624C279.931 428.624 281.911 429.248 283.351 430.496C284.815 431.744 285.655 433.4 285.871 435.464H280.183C280.087 434.768 279.775 434.216 279.247 433.808C278.743 433.4 278.071 433.196 277.231 433.196C276.511 433.196 275.959 433.34 275.575 433.628C275.191 433.892 274.999 434.264 274.999 434.744C274.999 435.32 275.299 435.752 275.899 436.04C276.523 436.328 277.483 436.616 278.779 436.904C280.267 437.288 281.479 437.672 282.415 438.056C283.351 438.416 284.167 439.016 284.863 439.856C285.583 440.672 285.955 441.776 285.979 443.168C285.979 444.344 285.643 445.4 284.971 446.336C284.323 447.248 283.375 447.968 282.127 448.496C280.903 449.024 279.475 449.288 277.843 449.288ZM300.942 443.78V449H297.81C295.578 449 293.838 448.46 292.59 447.38C291.342 446.276 290.718 444.488 290.718 442.016V434.024H288.27V428.912H290.718V424.016H296.874V428.912H300.906V434.024H296.874V442.088C296.874 442.688 297.018 443.12 297.306 443.384C297.594 443.648 298.074 443.78 298.746 443.78H300.942ZM316.611 428.696C318.963 428.696 320.835 429.464 322.227 431C323.643 432.512 324.351 434.6 324.351 437.264V449H318.231V438.092C318.231 436.748 317.883 435.704 317.187 434.96C316.491 434.216 315.555 433.844 314.379 433.844C313.203 433.844 312.267 434.216 311.571 434.96C310.875 435.704 310.527 436.748 310.527 438.092V449H304.371V428.912H310.527V431.576C311.151 430.688 311.991 429.992 313.047 429.488C314.103 428.96 315.291 428.696 316.611 428.696ZM334.784 432.26C335.504 431.156 336.404 430.292 337.484 429.668C338.564 429.02 339.764 428.696 341.084 428.696V435.212H339.392C337.856 435.212 336.704 435.548 335.936 436.22C335.168 436.868 334.784 438.02 334.784 439.676V449H328.628V428.912H334.784V432.26Z" fill="#5ED5A8"/>
</svg>
